{"title":"The Bounty Hunter PROPER (PSP + Ipod touch + Zune)","uid":5651124,"size":441423118,"categoryP":"video","categoryS":"handheld","magnet":"?xt=urn:btih:4d67256d68f8255b2257052767cdedc99c2106e3&amp;dn=The+Bounty+Hunter+PROPER+%28PSP+%2B+Ipod+touch+%2B+Zune%29&amp;tr=udp%3A%2F%2Ftracker.openbittorrent.com%3A80&amp;tr=udp%3A%2F%2Fopen.demonii.com%3A1337&amp;tr=udp%3A%2F%2Ftracker.coppersurfer.tk%3A6969&amp;tr=udp%3A%2F%2Fexodus.desync.com%3A6969","seeders":0,"leechers":1,"uploader":"on.off.on","files":-1,"time":1277644143,"description":"The Bounty Hunter &lt;a href=&quot;\nhttp://www.imdb.com/title/tt1038919/&quot; rel=&quot;nofollow&quot; target=&quot;_NEW&quot;&gt;\nhttp://www.imdb.com/title/tt1038919/&lt;/a&gt;\n\nSource  :\n\nThe.Bounty.Hunter.2010.1080p.BluRay.x264-METiS\n\n\nInfo    :\n\nID                               : 1\nFormat                           : AVC\nFormat/Info                      : Advanced Video Codec\nFormat profile                   : &lt;a class=&quot;__cf_email__&quot; href=&quot;/cdn-cgi/l/email-protection&quot; data-cfemail=&quot;e3a18290868f8a8d86a3afd1cdd3&quot;&gt;[email&amp;#160;protected]&lt;/a&gt;&lt;script cf-hash='f9e31' type=&quot;text/javascript&quot;&gt;\n/* &lt;![CDATA[ */!function(){try{var t=&quot;currentScript&quot;in document?document.currentScript:function(){for(var t=document.getElementsByTagName(&quot;script&quot;),e=t.length;e--;)if(t[e].getAttribute(&quot;cf-hash&quot;))return t[e]}();if(t&amp;&amp;t.previousSibling){var e,r,n,i,c=t.previousSibling,a=c.getAttribute(&quot;data-cfemail&quot;);if(a){for(e=&quot;&quot;,r=parseInt(a.substr(0,2),16),n=2;a.length-n;n+=2)i=parseInt(a.substr(n,2),16)^r,e+=String.fromCharCode(i);e=document.createTextNode(e),c.parentNode.replaceChild(e,c)}}}catch(u){}}();/* ]]&gt; */&lt;/script&gt;\nFormat settings, CABAC           : No\nFormat settings, ReFrames        : 3 frames\nCodec ID                         : avc1\nCodec ID/Info                    : Advanced Video Coding\nDuration                         : 1h 50mn\nBit rate mode                    : Variable\nBit rate                         : 400 Kbps\nWidth                            : 480 pixels\nHeight                           : 208 pixels\nDisplay aspect ratio             : 2.35:1\nFrame rate mode                  : Variable\nFrame rate                       : 23.976 fps\nMinimum frame rate               : 23.810 fps\nMaximum frame rate               : 24.390 fps\nColor space                      : YUV\nChroma subsampling               : 4:2:0\nBit depth                        : 8 bits\nScan type                        : Progressive\nBits/(Pixel*Frame)               : 0.167\nStream size                      : 316 MiB (75%)\nWriting library                  : x264 core 79\n\nID                               : 2\nFormat                           : AAC\nFormat/Info                      : Advanced Audio Codec\nFormat version                   : Version 4\nFormat profile                   : LC\nFormat settings, SBR             : No\nCodec ID                         : 40\nDuration                         : 1h 50mn\nBit rate mode                    : Variable\nBit rate                         : 128 Kbps\nMaximum bit rate                 : 207 Kbps\nChannel(s)                       : 2 channels\nChannel positions                : Front: L R\nSampling rate                    : 48.0 KHz\nStream size                      : 101 MiB (24%)\nLanguage                         : English\n\nScreens :  &lt;a href=&quot;\nhttp://img42.imageshack.us/img42/3505/vlcsnap00001jb.png&quot; rel=&quot;nofollow&quot; target=&quot;_NEW&quot;&gt;\nhttp://img42.imageshack.us/img42/3505/vlcsnap00001jb.png&lt;/a&gt; &lt;a href=&quot;\nhttp://img63.imageshack.us/img63/9891/vlcsnap00002z.png&quot; rel=&quot;nofollow&quot; target=&quot;_NEW&quot;&gt;\nhttp://img63.imageshack.us/img63/9891/vlcsnap00002z.png&lt;/a&gt; &lt;a href=&quot;\nhttp://img36.imageshack.us/img36/8400/vlcsnap00003ge.png&quot; rel=&quot;nofollow&quot; target=&quot;_NEW&quot;&gt;\nhttp://img36.imageshack.us/img36/8400/vlcsnap00003ge.png&lt;/a&gt; &lt;a href=&quot;\nhttp://img84.imageshack.us/img84/4271/vlcsnap00004a.png&quot; rel=&quot;nofollow&quot; target=&quot;_NEW&quot;&gt;\nhttp://img84.imageshack.us/img84/4271/vlcsnap00004a.png&lt;/a&gt; &lt;a href=&quot;\nhttp://img820.imageshack.us/img820/883/vlcsnap00005x.png&quot; rel=&quot;nofollow&quot; target=&quot;_NEW&quot;&gt;\nhttp://img820.imageshack.us/img820/883/vlcsnap00005x.png&lt;/a&gt; &lt;a href=&quot;\nhttp://img29.imageshack.us/img29/7245/vlcsnap00006s.png&quot; rel=&quot;nofollow&quot; target=&quot;_NEW&quot;&gt;\nhttp://img29.imageshack.us/img29/7245/vlcsnap00006s.png&lt;/a&gt; &lt;a href=&quot;\nhttp://img139.imageshack.us/img139/335/vlcsnap00007t.png&quot; rel=&quot;nofollow&quot; target=&quot;_NEW&quot;&gt;\nhttp://img139.imageshack.us/img139/335/vlcsnap00007t.png&lt;/a&gt; &lt;a href=&quot;\nhttp://img193.imageshack.us/img193/3311/vlcsnap00008y.png&quot; rel=&quot;nofollow&quot; target=&quot;_NEW&quot;&gt;\nhttp://img193.imageshack.us/img193/3311/vlcsnap00008y.png&lt;/a&gt;\n\n\nPLEASE LET THE TORRENT SEED AND SHARE IT WITH ALL YOU KNOW!\n\nLet me know what I can do to be your trusted source of Handheld videos.\n &lt;a href=&quot; http://thepiratebay.se/user/on.off.on/&quot; rel=&quot;nofollow&quot; target=&quot;_NEW&quot;&gt; http://thepiratebay.se/user/on.off.on/&lt;/a&gt; -OOO","torrent":{"xt":"urn:btih:4d67256d68f8255b2257052767cdedc99c2106e3","amp;dn":"The+Bounty+Hunter+PROPER+%28PSP+%2B+Ipod+touch+%2B+Zune%29","amp;tr":["udp%3A%2F%2Ftracker.openbittorrent.com%3A80","udp%3A%2F%2Fopen.demonii.com%3A1337","udp%3A%2F%2Ftracker.coppersurfer.tk%3A6969","udp%3A%2F%2Fexodus.desync.com%3A6969"],"infoHash":"4d67256d68f8255b2257052767cdedc99c2106e3","infoHashBuffer":{"type":"Buffer","data":[77,103,37,109,104,248,37,91,34,87,5,39,103,205,237,201,156,33,6,227]},"announce":[],"urlList":[]}}